<svg width="32" height="32" viewBox="0 0 32 32" fill="none" xmlns="http://www.w3.org/2000/svg">
<g clip-path="url(#clip0_218_23912)">
<rect width="32" height="32" fill="#D8D9DB"/>
<g clip-path="url(#clip1_218_23912)">
<path d="M16 32C24.8366 32 32 24.8366 32 16C32 7.16344 24.8366 0 16 0C7.16344 0 0 7.16344 0 16C0 24.8366 7.16344 32 16 32Z" fill="#D8D9DB"/>
<path d="M12.2744 14.5098H10.7842V7.80392C10.7842 7.39187 11.1172 7.05884 11.5293 7.05884H20.4704C20.8825 7.05884 21.2156 7.39187 21.2156 7.80392V12.2745H19.7254V8.54905H12.2744V14.5098Z" fill="#60696C"/>
<path d="M24.1959 13.0195H17.49C17.0779 13.0195 16.7449 13.3526 16.7449 13.7646V23.4509H15.2547V16.745C15.2547 16.333 14.9216 15.9999 14.5096 15.9999H7.80368C7.39168 15.9999 7.05859 16.333 7.05859 16.745V24.196C7.05859 24.608 7.39168 24.9411 7.80368 24.9411H24.1959C24.6079 24.9411 24.9409 24.608 24.9409 24.196V13.7646C24.9409 13.3526 24.6079 13.0195 24.1959 13.0195ZM12.2743 22.7058H10.039V21.2156H12.2743V22.7058ZM12.2743 19.7254H10.039V18.2352H12.2743V19.7254ZM21.9606 22.7058H19.7253V21.2156H21.9606V22.7058ZM21.9606 19.7254H19.7253V18.2352H21.9606V19.7254ZM21.9606 16.745H19.7253V15.2548H21.9606V16.745Z" fill="#60696C"/>
</g>
</g>
<defs>
<clipPath id="clip0_218_23912">
<rect width="32" height="32" fill="white"/>
</clipPath>
<clipPath id="clip1_218_23912">
<rect width="32" height="32" fill="white"/>
</clipPath>
</defs>
</svg>
